<?xml version="1.0" encoding="utf-8"?>
<!-- Generator: Adobe Illustrator 19.0.1, SVG Export Plug-In . SVG Version: 6.00 Build 0)  -->
<svg version="1.1" id="Layer_1" xmlns="http://www.w3.org/2000/svg" xmlns:xlink="http://www.w3.org/1999/xlink" x="0px" y="0px"
	 viewBox="195 77 358 360" style="enable-background:new 195 77 358 360;" xml:space="preserve">
<style type="text/css">
	.st0{fill:#DA0000;}
	.st1{fill:#FFFFFF;}
	.st2{fill:#239F40;}
</style>
<g>
	<g>
		<path class="st0" d="M535,316h-24.4v-1H508v1h-24.4v-1h-2.7v1h-24.4v-1h-2.7v1h-24.4v-1h-2.7v1h-24.4v-1h-2.7v1h-24.4v-1h-2.7v1
			h-24.4v-1h-2.7v1h-24.4v-1h-2.7v1h-24.4v-1h-2.7v1h-24.4v-1h-2.7v1H240v-1h-2.7v1H213v-1h-2c0.7,1.9,1.4,3.9,2.2,5.8h8v1.9h-7.2
			c0.5,1.2,1,2.3,1.5,3.5h8.8v-5.8h1.9v11.2h3.5v-11.2h1.9v11.2h3.5v-11.2h1.9v13.1h-12.8v-5.4h-7.9c0.5,1.2,1.1,2.3,1.6,3.5h3.2
			v1.9h-2.3C247.1,390.7,305.9,430,374,430s126.9-39.3,155.2-96.5h-7.3v-5.4H513v5.8H511v-7.7h12.8v5.4h6.3c0.6-1.2,1.1-2.3,1.6-3.5
			h-4.8v-1.9h5.7c0.5-1.2,1-2.3,1.5-3.5h-23.4v-1.9h24.2c0.8-1.9,1.5-3.9,2.2-5.8h-2V316z M240,320.8h35.2v1.9H240V320.8z
			 M248.2,333.5h-2.7v-1.9h2.7V333.5z M264,333.5h-12.8v-5.4h-8.9v5.8h-1.9v-7.7h12.8v5.4h8.9v-3.5h-5.8v-1.9h7.7V333.5z
			 M291.1,333.5h-12.8v-5.4h-8.9v3.5h5.8v1.9h-7.7v-7.3h10.8v-5.8h1.9v11.2h3.5v-11.2h1.9v11.2h3.5v-11.2h1.9V333.5z M294.2,320.8
			h35.2v1.9h-35.2V320.8z M302.3,333.5h-2.7v-1.9h2.7V333.5z M318.1,333.5h-12.8v-5.4h-8.9v5.8h-1.9v-7.7h12.8v5.4h8.9v-3.5h-5.8
			v-1.9h7.7V333.5z M345.2,333.5h-12.8v-5.4h-8.9v3.5h5.8v1.9h-7.7v-7.3h10.8v-5.8h1.9v11.2h3.5v-11.2h1.9v11.2h3.5v-11.2h1.9V333.5
			z M356.4,333.5h-2.7v-1.9h2.7V333.5z M372.3,333.5h-12.8v-5.4h-8.9v5.8h-1.9v-7.7h12.8v5.4h8.9v-3.5h-5.8v-1.9h7.7V333.5z
			 M348.3,322.7v-1.9h35.2v1.9H348.3z M399.3,333.5h-12.8v-5.4h-8.9v3.5h5.8v1.9h-7.7v-7.3h10.8v-5.8h1.9v11.2h3.5v-11.2h1.9v11.2
			h3.5v-11.2h1.9V333.5z M402.4,320.8h35.2v1.9h-35.2V320.8z M410.5,333.5h-2.7v-1.9h2.7V333.5z M426.4,333.5h-12.8v-5.4h-8.9v5.8
			h-1.9v-7.7h12.8v5.4h8.9v-3.5h-5.8v-1.9h7.7V333.5z M453.4,333.5h-12.8v-5.4h-8.9v3.5h5.8v1.9h-7.7v-7.3h10.8v-5.8h1.9v11.2h3.5
			v-11.2h1.9v11.2h3.5v-11.2h1.9V333.5z M456.5,320.8h35.2v1.9h-35.2V320.8z M464.7,333.5h-2.7v-1.9h2.7V333.5z M480.5,333.5h-12.8
			v-5.4h-8.9v5.8h-1.9v-7.7h12.8v5.4h8.9v-3.5h-5.8v-1.9h7.7V333.5z M507.6,333.5h-12.8v-5.4h-8.9v3.5h5.8v1.9H484v-7.3h10.8v-5.8
			h1.9v11.2h3.5v-11.2h1.9v11.2h3.5v-11.2h1.9V333.5z M516.1,331.6h2.7v1.9h-2.7V331.6z"/>
		<path class="st1" d="M535,200h-24.4v-1H508v1h-24.4v-1h-2.7v1h-24.4v-1h-2.7v1h-24.4v-1h-2.7v1h-24.4v-1h-2.7v1h-24.4v-1h-2.7v1
			h-24.4v-1h-2.7v1h-24.4v-1h-2.7v1h-24.4v-1h-2.7v1h-24.4v-1h-2.7v1H240v-1h-2.7v1H213v-1h-2c-6.4,18.1-10,37.6-10,58
			s3.5,39.9,10,58h2v-1h24.4v1h2.7v-1h24.4v1h2.7v-1h24.4v1h2.7v-1h24.4v1h2.7v-1h24.4v1h2.7v-1h24.4v1h2.7v-1h24.4v1h2.7v-1h24.4v1
			h2.7v-1h24.4v1h2.7v-1h24.4v1h2.7v-1H508v1h2.7v-1H535v1h2c6.4-18.1,10-37.6,10-58s-3.5-39.9-10-58h-2V200z M363,214.9
			c0.6,3.2,3.7,5.3,6.9,4.7c1.7-0.3,3.2-1.4,4-2.9c0.9,1.5,2.3,2.5,4,2.9c3.2,0.6,6.3-1.5,6.9-4.7c1.1,2.7,0.2,5.8-2.2,7.5
			c-2.8,2-6.8,1.3-8.7-1.5c-2,2.8-5.9,3.5-8.7,1.5C362.9,220.7,362,217.6,363,214.9z M335,240.4c4.5-7.8,12-13.4,20.7-15.6
			c-19.2,14.4-23.1,41.7-8.6,60.9c0,0,0,0.1,0.1,0.1C331.2,276.6,325.8,256.3,335,240.4z M380.8,290.8c5.4,2,11.2,2.9,17,2.6
			c-6.8,2.2-13.8,2.5-20.4,1.1l-0.1,1.4l-3.4,4.7l-3.4-4.7l-0.1-1.4c-6.6,1.4-13.6,1.1-20.4-1.1c5.8,0.3,11.6-0.6,17-2.6
			c-8.9-4.6-16-12.6-19.3-22.9c-4.9-15.2-0.3-31.9,11.9-42.3c-13.2,19.5-8.4,45.8,10.5,59.5l-1.3-32.5v-25.6c2-1,3.8-2.5,5.1-4.3
			c1.3,1.8,3.1,3.3,5.1,4.3v25.6l-1.3,32.5c18.9-13.7,23.6-40,10.5-59.5c12.1,10.4,16.8,27.1,11.9,42.3
			C396.8,278.2,389.7,286.1,380.8,290.8z M400.9,285.8C400.9,285.7,400.9,285.7,400.9,285.8c14.5-19.3,10.6-46.6-8.6-61
			c8.7,2.2,16.2,7.8,20.7,15.6C422.2,256.3,416.8,276.6,400.9,285.8z"/>
		<path class="st2" d="M374,84c-68.1,0-126.9,39.3-155.2,96.5h2.3v1.9h-3.2c-0.6,1.2-1.1,2.3-1.6,3.5h7.9v-5.8h1.9v11.2h3.5v-11.2
			h1.9v11.2h3.5v-11.2h1.9v13.1h-12.8v-5.4h-8.8c0,0.1-0.1,0.2-0.1,0.2v3.2h5.8v1.9h-7.7v-0.6c-0.8,2.1-1.6,4.2-2.4,6.4h2v-1h24.4v1
			h2.7v-1h24.4v1h2.7v-1h24.4v1h2.7v-1h24.4v1h2.7v-1h24.4v1h2.7v-1h24.4v1h2.7v-1h24.4v1h2.7v-1h24.4v1h2.7v-1h24.4v1h2.7v-1h24.4
			v1h2.7v-1H508v1h2.7v-1H535v1h2c-0.8-2.1-1.6-4.3-2.4-6.4v0.6h-12.8v-5.4H513v5.8H511v-7.7h12.8v5.4h8.9V188
			c0-0.1-0.1-0.2-0.1-0.2h-5.7v-1.9h4.8c-0.5-1.2-1.1-2.3-1.6-3.5h-19.5v-1.9h18.5C500.9,123.3,442.1,84,374,84z M248.2,193.2h-2.7
			v-1.9h2.7V193.2z M264,193.2h-12.8v-5.4h-8.9v5.8h-1.9v-7.7h12.8v5.4h8.9v-3.5h-5.8v-1.9h7.7V193.2z M240,182.4v-1.9h35.2v1.9H240
			z M291.1,193.2h-12.8v-5.4h-8.9v3.5h5.8v1.9h-7.7v-7.3h10.8v-5.8h1.9v11.2h3.5v-11.2h1.9v11.2h3.5v-11.2h1.9V193.2z M302.3,193.2
			h-2.7v-1.9h2.7V193.2z M318.1,193.2h-12.8v-5.4h-8.9v5.8h-1.9v-7.7h12.8v5.4h8.9v-3.5h-5.8v-1.9h7.7V193.2z M294.2,182.4v-1.9
			h35.2v1.9H294.2z M345.2,193.2h-12.8v-5.4h-8.9v3.5h5.8v1.9h-7.7v-7.3h10.8v-5.8h1.9v11.2h3.5v-11.2h1.9v11.2h3.5v-11.2h1.9V193.2
			z M356.4,193.2h-2.7v-1.9h2.7V193.2z M372.3,193.2h-12.8v-5.4h-8.9v5.8h-1.9v-7.7h12.8v5.4h8.9v-3.5h-5.8v-1.9h7.7V193.2z
			 M348.3,182.4v-1.9h35.2v1.9H348.3z M399.3,193.2h-12.8v-5.4h-8.9v3.5h5.8v1.9h-7.7v-7.3h10.8v-5.8h1.9v11.2h3.5v-11.2h1.9v11.2
			h3.5v-11.2h1.9V193.2z M410.5,193.2h-2.7v-1.9h2.7V193.2z M426.4,193.2h-12.8v-5.4h-8.9v5.8h-1.9v-7.7h12.8v5.4h8.9v-3.5h-5.8
			v-1.9h7.7V193.2z M402.4,182.4v-1.9h35.2v1.9H402.4z M453.4,193.2h-12.8v-5.4h-8.9v3.5h5.8v1.9h-7.7v-7.3h10.8v-5.8h1.9v11.2h3.5
			v-11.2h1.9v11.2h3.5v-11.2h1.9V193.2z M516.1,191.3h2.7v1.9h-2.7V191.3z M464.7,193.2h-2.7v-1.9h2.7V193.2z M480.5,193.2h-12.8
			v-5.4h-8.9v5.8h-1.9v-7.7h12.8v5.4h8.9v-3.5h-5.8v-1.9h7.7V193.2z M456.5,182.4v-1.9h35.2v1.9H456.5z M500.2,191.3v-11.2h1.9v11.2
			h3.5v-11.2h1.9v13.1h-12.8v-5.4h-8.9v3.5h5.8v1.9H484v-7.3h10.8v-5.8h1.9v11.2H500.2z"/>
		<path class="st1" d="M221.1,180.5h-2.3c-0.3,0.6-0.6,1.3-0.9,1.9h3.2V180.5z"/>
		<path class="st1" d="M221.1,193.2v-1.9h-5.8V188c-0.7,1.5-1.3,3.1-1.9,4.6v0.6H221.1z"/>
		<path class="st1" d="M224.2,193.2H237v-13.1H235v11.2h-3.5v-11.2h-1.9v11.2h-3.5v-11.2h-1.9v5.8h-7.9c-0.3,0.6-0.6,1.3-0.8,1.9
			h8.8V193.2z"/>
		<polygon class="st1" points="237.3,200 237.3,199 237.3,198 213,198 213,199 213,200 		"/>
		<polygon class="st1" points="237.3,316 237.3,315 237.3,314 213,314 213,315 213,316 		"/>
		<path class="st1" d="M221.1,320.8h-8c0.3,0.6,0.5,1.3,0.8,1.9h7.2V320.8z"/>
		<path class="st1" d="M221.1,331.6h-3.2c0.3,0.6,0.6,1.3,0.9,1.9h2.3V331.6z"/>
		<path class="st1" d="M224.2,333.5H237v-13.1H235v11.2h-3.5v-11.2h-1.9v11.2h-3.5v-11.2h-1.9v5.8h-8.8c0.3,0.6,0.6,1.3,0.8,1.9h7.9
			V333.5z"/>
		<rect x="240" y="180.5" class="st1" width="35.2" height="1.9"/>
		<polygon class="st1" points="289.1,191.3 285.7,191.3 285.7,180.1 283.7,180.1 283.7,191.3 280.3,191.3 280.3,180.1 278.3,180.1 
			278.3,185.9 267.5,185.9 267.5,193.2 275.2,193.2 275.2,191.3 269.4,191.3 269.4,187.8 278.3,187.8 278.3,193.2 291.1,193.2 
			291.1,180.1 289.1,180.1 		"/>
		<polygon class="st1" points="256.3,187.8 262.1,187.8 262.1,191.3 253.2,191.3 253.2,185.9 240.4,185.9 240.4,193.6 242.4,193.6 
			242.4,187.8 251.3,187.8 251.3,193.2 264,193.2 264,185.9 256.3,185.9 		"/>
		<rect x="245.5" y="191.3" class="st1" width="2.7" height="1.9"/>
		<polygon class="st1" points="264.4,200 264.4,199 264.4,198 240,198 240,199 240,200 		"/>
		<polygon class="st1" points="291.5,200 291.5,199 291.5,198 267.1,198 267.1,199 267.1,200 		"/>
		<polygon class="st1" points="264.4,316 264.4,315 264.4,314 240,314 240,315 240,316 		"/>
		<polygon class="st1" points="291.5,316 291.5,315 291.5,314 267.1,314 267.1,315 267.1,316 		"/>
		<rect x="245.5" y="331.6" class="st1" width="2.7" height="1.9"/>
		<polygon class="st1" points="256.3,328.1 262.1,328.1 262.1,331.6 253.2,331.6 253.2,326.2 240.4,326.2 240.4,333.9 242.4,333.9 
			242.4,328.1 251.3,328.1 251.3,333.5 264,333.5 264,326.2 256.3,326.2 		"/>
		<polygon class="st1" points="289.1,331.6 285.7,331.6 285.7,320.4 283.7,320.4 283.7,331.6 280.3,331.6 280.3,320.4 278.3,320.4 
			278.3,326.2 267.5,326.2 267.5,333.5 275.2,333.5 275.2,331.6 269.4,331.6 269.4,328.1 278.3,328.1 278.3,333.5 291.1,333.5 
			291.1,320.4 289.1,320.4 		"/>
		<rect x="240" y="320.8" class="st1" width="35.2" height="1.9"/>
		<polygon class="st1" points="310.4,187.8 316.2,187.8 316.2,191.3 307.3,191.3 307.3,185.9 294.6,185.9 294.6,193.6 296.5,193.6 
			296.5,187.8 305.4,187.8 305.4,193.2 318.1,193.2 318.1,185.9 310.4,185.9 		"/>
		<polygon class="st1" points="343.3,191.3 339.8,191.3 339.8,180.1 337.9,180.1 337.9,191.3 334.4,191.3 334.4,180.1 332.4,180.1 
			332.4,185.9 321.6,185.9 321.6,193.2 329.3,193.2 329.3,191.3 323.5,191.3 323.5,187.8 332.4,187.8 332.4,193.2 345.2,193.2 
			345.2,180.1 343.3,180.1 		"/>
		<rect x="299.6" y="191.3" class="st1" width="2.7" height="1.9"/>
		<rect x="294.2" y="180.5" class="st1" width="35.2" height="1.9"/>
		<polygon class="st1" points="345.6,200 345.6,199 345.6,198 321.2,198 321.2,199 321.2,200 		"/>
		<polygon class="st1" points="318.5,200 318.5,199 318.5,198 294.2,198 294.2,199 294.2,200 		"/>
		<polygon class="st1" points="345.6,316 345.6,315 345.6,314 321.2,314 321.2,315 321.2,316 		"/>
		<polygon class="st1" points="318.5,316 318.5,315 318.5,314 294.2,314 294.2,315 294.2,316 		"/>
		<rect x="299.6" y="331.6" class="st1" width="2.7" height="1.9"/>
		<rect x="294.2" y="320.8" class="st1" width="35.2" height="1.9"/>
		<polygon class="st1" points="343.3,331.6 339.8,331.6 339.8,320.4 337.9,320.4 337.9,331.6 334.4,331.6 334.4,320.4 332.4,320.4 
			332.4,326.2 321.6,326.2 321.6,333.5 329.3,333.5 329.3,331.6 323.5,331.6 323.5,328.1 332.4,328.1 332.4,333.5 345.2,333.5 
			345.2,320.4 343.3,320.4 		"/>
		<polygon class="st1" points="310.4,328.1 316.2,328.1 316.2,331.6 307.3,331.6 307.3,326.2 294.6,326.2 294.6,333.9 296.5,333.9 
			296.5,328.1 305.4,328.1 305.4,333.5 318.1,333.5 318.1,326.2 310.4,326.2 		"/>
		<rect x="348.3" y="180.5" class="st1" width="35.2" height="1.9"/>
		<polygon class="st1" points="364.5,187.8 370.3,187.8 370.3,191.3 361.4,191.3 361.4,185.9 348.7,185.9 348.7,193.6 350.6,193.6 
			350.6,187.8 359.5,187.8 359.5,193.2 372.3,193.2 372.3,185.9 364.5,185.9 		"/>
		<polygon class="st1" points="397.4,191.3 393.9,191.3 393.9,180.1 392,180.1 392,191.3 388.5,191.3 388.5,180.1 386.6,180.1 
			386.6,185.9 375.7,185.9 375.7,193.2 383.5,193.2 383.5,191.3 377.7,191.3 377.7,187.8 386.6,187.8 386.6,193.2 399.3,193.2 
			399.3,180.1 397.4,180.1 		"/>
		<rect x="353.7" y="191.3" class="st1" width="2.7" height="1.9"/>
		<polygon class="st1" points="399.7,200 399.7,199 399.7,198 375.4,198 375.4,199 375.4,200 		"/>
		<polygon class="st1" points="372.6,200 372.6,199 372.6,198 348.3,198 348.3,199 348.3,200 		"/>
		<polygon class="st1" points="399.7,316 399.7,315 399.7,314 375.4,314 375.4,315 375.4,316 		"/>
		<polygon class="st1" points="372.6,316 372.6,315 372.6,314 348.3,314 348.3,315 348.3,316 		"/>
		<rect x="353.7" y="331.6" class="st1" width="2.7" height="1.9"/>
		<polygon class="st1" points="364.5,328.1 370.3,328.1 370.3,331.6 361.4,331.6 361.4,326.2 348.7,326.2 348.7,333.9 350.6,333.9 
			350.6,328.1 359.5,328.1 359.5,333.5 372.3,333.5 372.3,326.2 364.5,326.2 		"/>
		<polygon class="st1" points="397.4,331.6 393.9,331.6 393.9,320.4 392,320.4 392,331.6 388.5,331.6 388.5,320.4 386.6,320.4 
			386.6,326.2 375.7,326.2 375.7,333.5 383.5,333.5 383.5,331.6 377.7,331.6 377.7,328.1 386.6,328.1 386.6,333.5 399.3,333.5 
			399.3,320.4 397.4,320.4 		"/>
		<rect x="348.3" y="320.8" class="st1" width="35.2" height="1.9"/>
		<rect x="407.8" y="191.3" class="st1" width="2.7" height="1.9"/>
		<polygon class="st1" points="451.5,191.3 448,191.3 448,180.1 446.1,180.1 446.1,191.3 442.6,191.3 442.6,180.1 440.7,180.1 
			440.7,185.9 429.9,185.9 429.9,193.2 437.6,193.2 437.6,191.3 431.8,191.3 431.8,187.8 440.7,187.8 440.7,193.2 453.4,193.2 
			453.4,180.1 451.5,180.1 		"/>
		<polygon class="st1" points="418.7,187.8 424.5,187.8 424.5,191.3 415.6,191.3 415.6,185.9 402.8,185.9 402.8,193.6 404.7,193.6 
			404.7,187.8 413.6,187.8 413.6,193.2 426.4,193.2 426.4,185.9 418.7,185.9 		"/>
		<rect x="402.4" y="180.5" class="st1" width="35.2" height="1.9"/>
		<polygon class="st1" points="453.8,200 453.8,199 453.8,198 429.5,198 429.5,199 429.5,200 		"/>
		<polygon class="st1" points="426.8,200 426.8,199 426.8,198 402.4,198 402.4,199 402.4,200 		"/>
		<polygon class="st1" points="453.8,316 453.8,315 453.8,314 429.5,314 429.5,315 429.5,316 		"/>
		<polygon class="st1" points="426.8,316 426.8,315 426.8,314 402.4,314 402.4,315 402.4,316 		"/>
		<polygon class="st1" points="418.7,328.1 424.5,328.1 424.5,331.6 415.6,331.6 415.6,326.2 402.8,326.2 402.8,333.9 404.7,333.9 
			404.7,328.1 413.6,328.1 413.6,333.5 426.4,333.5 426.4,326.2 418.7,326.2 		"/>
		<polygon class="st1" points="451.5,331.6 448,331.6 448,320.4 446.1,320.4 446.1,331.6 442.6,331.6 442.6,320.4 440.7,320.4 
			440.7,326.2 429.9,326.2 429.9,333.5 437.6,333.5 437.6,331.6 431.8,331.6 431.8,328.1 440.7,328.1 440.7,333.5 453.4,333.5 
			453.4,320.4 451.5,320.4 		"/>
		<rect x="407.8" y="331.6" class="st1" width="2.7" height="1.9"/>
		<rect x="402.4" y="320.8" class="st1" width="35.2" height="1.9"/>
		<rect x="456.5" y="180.5" class="st1" width="35.2" height="1.9"/>
		<polygon class="st1" points="472.8,187.8 478.6,187.8 478.6,191.3 469.7,191.3 469.7,185.9 456.9,185.9 456.9,193.6 458.9,193.6 
			458.9,187.8 467.7,187.8 467.7,193.2 480.5,193.2 480.5,185.9 472.8,185.9 		"/>
		<polygon class="st1" points="494.8,180.1 494.8,185.9 484,185.9 484,193.2 491.7,193.2 491.7,191.3 485.9,191.3 485.9,187.8 
			494.8,187.8 494.8,193.2 507.6,193.2 507.6,180.1 505.6,180.1 505.6,191.3 502.2,191.3 502.2,180.1 500.2,180.1 500.2,191.3 
			496.7,191.3 496.7,180.1 		"/>
		<rect x="461.9" y="191.3" class="st1" width="2.7" height="1.9"/>
		<polygon class="st1" points="508,200 508,199 508,198 483.6,198 483.6,199 483.6,200 		"/>
		<polygon class="st1" points="480.9,200 480.9,199 480.9,198 456.5,198 456.5,199 456.5,200 		"/>
		<polygon class="st1" points="480.9,316 480.9,315 480.9,314 456.5,314 456.5,315 456.5,316 		"/>
		<polygon class="st1" points="508,316 508,315 508,314 483.6,314 483.6,315 483.6,316 		"/>
		<rect x="461.9" y="331.6" class="st1" width="2.7" height="1.9"/>
		<polygon class="st1" points="505.6,331.6 502.2,331.6 502.2,320.4 500.2,320.4 500.2,331.6 496.7,331.6 496.7,320.4 494.8,320.4 
			494.8,326.2 484,326.2 484,333.5 491.7,333.5 491.7,331.6 485.9,331.6 485.9,328.1 494.8,328.1 494.8,333.5 507.6,333.5 
			507.6,320.4 505.6,320.4 		"/>
		<rect x="456.5" y="320.8" class="st1" width="35.2" height="1.9"/>
		<polygon class="st1" points="472.8,328.1 478.6,328.1 478.6,331.6 469.7,331.6 469.7,326.2 456.9,326.2 456.9,333.9 458.9,333.9 
			458.9,328.1 467.7,328.1 467.7,333.5 480.5,333.5 480.5,326.2 472.8,326.2 		"/>
		<path class="st1" d="M526.9,187.8h5.7c-0.3-0.6-0.6-1.3-0.8-1.9h-4.8V187.8z"/>
		<path class="st1" d="M523.8,191.3v-5.4H511v7.7h1.9v-5.8h8.9v5.4h12.8v-0.6c-0.6-1.6-1.3-3.1-1.9-4.6v3.2H523.8z"/>
		<path class="st1" d="M510.7,182.4h19.5c-0.3-0.6-0.6-1.3-0.9-1.9h-18.5V182.4z"/>
		<rect x="516.1" y="191.3" class="st1" width="2.7" height="1.9"/>
		<polygon class="st1" points="535,200 535,199 535,198 510.7,198 510.7,199 510.7,200 		"/>
		<polygon class="st1" points="535,316 535,315 535,314 510.7,314 510.7,315 510.7,316 		"/>
		<rect x="516.1" y="331.6" class="st1" width="2.7" height="1.9"/>
		<path class="st1" d="M526.9,328.1h4.8c0.3-0.6,0.6-1.3,0.8-1.9h-5.7V328.1z"/>
		<path class="st1" d="M510.7,322.7h23.4c0.3-0.6,0.5-1.3,0.8-1.9h-24.2V322.7z"/>
		<path class="st1" d="M523.8,326.2H511v7.7h1.9v-5.8h8.9v5.4h7.3c0.3-0.6,0.6-1.3,0.9-1.9h-6.3V326.2z"/>
		<path class="st0" d="M367.2,290.8c-5.4,2-11.2,2.9-17,2.6c6.8,2.2,13.8,2.5,20.4,1.1l-0.1-2.2
			C369.4,291.9,368.3,291.3,367.2,290.8z"/>
		<path class="st0" d="M388.3,225.6c13.2,19.5,8.4,45.8-10.5,59.5l-0.2,4.4c1,0.5,2.1,0.9,3.2,1.3c8.9-4.6,16-12.6,19.3-22.9
			C405.1,252.7,400.4,236,388.3,225.6z"/>
		<path class="st0" d="M392.3,224.8c19.2,14.4,23.1,41.7,8.6,60.9c0,0,0,0.1-0.1,0.1c15.9-9.2,21.3-29.5,12.1-45.4
			C408.5,232.6,401.1,227,392.3,224.8z"/>
		<path class="st0" d="M374.6,287.9c1,0.5,2,1.1,3,1.5l0.2-4.4l1.3-32.5v-25.6c-2-1-3.8-2.5-5.1-4.3l2.2,34.2L374.6,287.9z"/>
		<path class="st0" d="M374,300.5l3.4-4.7l0.1-1.4c-1-0.2-2.1-0.5-3.1-0.8L374,300.5z"/>
		<path class="st0" d="M374,220.8c2,2.8,5.9,3.5,8.7,1.5c2.4-1.7,3.3-4.8,2.2-7.5c-0.6,3.2-3.7,5.3-6.9,4.7c-1.7-0.3-3.2-1.4-4-2.9
			l0.9,3.2L374,220.8z"/>
		<path class="st0" d="M370.2,285.1c-18.9-13.7-23.6-40-10.5-59.5c-12.1,10.4-16.8,27.1-11.9,42.3c3.3,10.3,10.5,18.2,19.3,22.9
			c1.1,0.6,2.2,1.1,3.3,1.5L370.2,285.1z"/>
		<path class="st0" d="M374.6,287.9l-0.3,5.7c1,0.3,2.1,0.6,3.1,0.8c6.6,1.4,13.6,1.1,20.4-1.1c-5.8,0.3-11.6-0.6-17-2.6
			c-1.1-0.4-2.1-0.8-3.2-1.3C376.6,289,375.6,288.5,374.6,287.9z"/>
		<path class="st0" d="M355.7,224.8c-8.7,2.2-16.2,7.8-20.7,15.6c-9.2,15.9-3.7,36.2,12.1,45.4c0,0,0-0.1-0.1-0.1
			C332.6,266.5,336.5,239.2,355.7,224.8z"/>
		<path class="st0" d="M374.6,287.9l1.5-30.9l-2.2-34.2c-1.3,1.8-3.1,3.3-5.1,4.3v25.6l1.3,32.5l0.3,7.2l0.1,2.2l0.1,1.4l3.4,4.7
			l0.3-6.8L374.6,287.9z"/>
		<path class="st0" d="M365.3,222.4c2.8,2,6.8,1.3,8.7-1.5l0.9-0.8l-0.9-3.2c-0.9,1.5-2.3,2.5-4,2.9c-3.2,0.6-6.3-1.5-6.9-4.7
			C362,217.6,362.9,220.7,365.3,222.4z"/>
	</g>
</g>
</svg>
