<svg xmlns="http://www.w3.org/2000/svg" width="20" height="20" viewBox="0 0 20 20"><ellipse cx="10" cy="10" rx="10" ry="10" fill="#f0f0f0"/><g transform="translate(0.353 2.23)"><path d="M244.87,191.893h10.7a10.269,10.269,0,0,0-.353-2.676H244.87Z" transform="translate(-235.926 -184.042)" fill="#d80027"/><path d="M244.87,58.328h9.2a10.311,10.311,0,0,0-2.367-2.676H244.87Z" transform="translate(-235.926 -55.652)" fill="#d80027"/><path d="M102.772,458.578a9.558,9.558,0,0,0,6.128-2.23H96.644A9.558,9.558,0,0,0,102.772,458.578Z" transform="translate(-93.125 -440.808)" fill="#d80027"/><path d="M9.941,325.458H26.99a10.341,10.341,0,0,0,1.122-2.676H8.819A10.341,10.341,0,0,0,9.941,325.458Z" transform="translate(-8.819 -312.432)" fill="#d80027"/></g><path d="M4.751,1.6h.935l-.869.632.332,1.022-.869-.632-.869.632L3.7,2.373A10.313,10.313,0,0,0,1.707,4.59h.3l-.553.4q-.129.216-.248.438l.264.813L.976,5.885q-.184.39-.335.8l.291.9H2.007l-.869.632.332,1.022L.6,8.6l-.521.378A10.356,10.356,0,0,0,0,10.257H10.257V0A10.208,10.208,0,0,0,4.751,1.6Zm.4,7.629L4.279,8.6l-.869.632.332-1.022-.869-.632H3.947l.332-1.022.332,1.022H5.686l-.869.632Zm-.332-4.01.332,1.022-.869-.632-.869.632.332-1.022L2.872,4.59H3.947l.332-1.022L4.611,4.59H5.686Zm4.011,4.01L7.958,8.6l-.869.632.332-1.022-.869-.632H7.626l.332-1.022L8.29,7.578H9.365L8.5,8.209ZM8.5,5.221l.332,1.022-.869-.632-.869.632.332-1.022L6.552,4.59H7.626l.332-1.022L8.29,4.59H9.365Zm0-2.988.332,1.022-.869-.632-.869.632.332-1.022L6.552,1.6H7.626L7.958.58,8.29,1.6H9.365Z" fill="#0052b4"/></svg>