<svg xmlns="http://www.w3.org/2000/svg" width="46.043" height="46.043" viewBox="0 0 46.043 46.043"><path d="M46.043,23.022A23.063,23.063,0,1,1,38.607,6.08,23.022,23.022,0,0,1,46.043,23.022Z" fill="#f0cd00"/><path d="M62.569,23.176A23.021,23.021,0,0,1,40.4,46.181,23.022,23.022,0,0,1,40.4.17,23.021,23.021,0,0,1,62.569,23.176Z" transform="translate(-16.526 -0.154)" fill="#ffde50"/><path d="M69.1,36.586,36.576,69.114a23.121,23.121,0,0,1-2.916-3.932L65.172,33.67A23.013,23.013,0,0,1,69.1,36.586Z" transform="translate(-30.497 -30.506)" fill="#ffea94"/><path d="M129.07,99.22,99.219,129.071a22.99,22.99,0,0,1-5.829-3.349L125.722,93.39A22.949,22.949,0,0,1,129.07,99.22Z" transform="translate(-84.615 -84.615)" fill="#ffea94"/><path d="M90.4,72.509a17.889,17.889,0,0,1-35.777.22c0-.073,0-.147,0-.22A17.889,17.889,0,0,1,72.509,54.62c.073,0,.148,0,.221,0a17.806,17.806,0,0,1,10.084,3.262,18.008,18.008,0,0,1,4.929,5.242A17.8,17.8,0,0,1,90.4,72.509Z" transform="translate(-49.488 -49.488)" fill="#faa300"/><path d="M85.158,59.86l-25.3,25.3a17.824,17.824,0,0,1-5.238-12.429c0-.073,0-.147,0-.22A17.889,17.889,0,0,1,72.509,54.62c.073,0,.148,0,.221,0a17.806,17.806,0,0,1,10.084,3.262A18.053,18.053,0,0,1,85.158,59.86Z" transform="translate(-49.488 -49.488)" fill="#ffbd00"/><path d="M253.144,72.509A17.89,17.89,0,0,1,235.255,90.4q-.509,0-1.01-.028a17.89,17.89,0,0,0,0-35.722q.5-.028,1.01-.028A17.89,17.89,0,0,1,253.144,72.509Z" transform="translate(-212.234 -49.488)" fill="#f68e00"/><path d="M152.557,93.528V86.283a3.659,3.659,0,0,1,1.9,3.2,1.76,1.76,0,1,0,3.521,0,7.189,7.189,0,0,0-5.416-6.958V81.1a1.76,1.76,0,1,0-3.521,0v1.433a7.189,7.189,0,0,0-5.416,6.958,6.391,6.391,0,0,0,1.8,4.769,8.415,8.415,0,0,0,3.62,2.011v7.256a3.659,3.659,0,0,1-1.9-3.2,1.76,1.76,0,0,0-3.521,0,7.189,7.189,0,0,0,5.416,6.958v1.433a1.76,1.76,0,1,0,3.521,0v-1.433a7.189,7.189,0,0,0,5.416-6.958,6.509,6.509,0,0,0-1.821-4.793A8.356,8.356,0,0,0,152.557,93.528Zm-4.651-1.762a2.9,2.9,0,0,1-.765-2.279,3.659,3.659,0,0,1,1.9-3.2v6.231A3.9,3.9,0,0,1,147.905,91.766Zm4.651,11.757V97.272a2.95,2.95,0,0,1,1.9,3.048A3.659,3.659,0,0,1,152.557,103.522Z" transform="translate(-130.125 -71.881)" fill="#f68e00"/><path d="M177.559,93.528V86.283a3.659,3.659,0,0,1,1.9,3.2,1.76,1.76,0,1,0,3.521,0,7.189,7.189,0,0,0-5.416-6.958V81.1a1.76,1.76,0,1,0-3.521,0v1.433a7.189,7.189,0,0,0-5.416,6.958,6.391,6.391,0,0,0,1.8,4.769,8.415,8.415,0,0,0,3.62,2.011v7.256a3.659,3.659,0,0,1-1.9-3.2,1.76,1.76,0,0,0-3.521,0,7.189,7.189,0,0,0,5.416,6.958v1.433a1.76,1.76,0,1,0,3.521,0v-1.433a7.189,7.189,0,0,0,5.416-6.958,6.509,6.509,0,0,0-1.821-4.793A8.357,8.357,0,0,0,177.559,93.528Zm-4.652-1.762a2.9,2.9,0,0,1-.765-2.279,3.659,3.659,0,0,1,1.9-3.2v6.231A3.9,3.9,0,0,1,172.907,91.766Zm4.652,11.757V97.272a2.95,2.95,0,0,1,1.9,3.048A3.659,3.659,0,0,1,177.559,103.522Z" transform="translate(-152.777 -71.881)" fill="#e10000"/></svg>