<svg xmlns="http://www.w3.org/2000/svg" width="46.353" height="46.353" viewBox="0 0 46.353 46.353"><path d="M46.353,23.177A23.219,23.219,0,1,1,38.867,6.121,23.177,23.177,0,0,1,46.353,23.177Z" fill="#f0cd00"/><path d="M62.868,23.331A23.176,23.176,0,0,1,40.554,46.491a23.177,23.177,0,0,1,0-46.321A23.176,23.176,0,0,1,62.868,23.331Z" transform="translate(-16.515 -0.154)" fill="#ffde50"/><path d="M69.343,36.605,36.6,69.353a23.275,23.275,0,0,1-2.935-3.959L65.385,33.67A23.168,23.168,0,0,1,69.343,36.605Z" transform="translate(-30.476 -30.485)" fill="#ffea94"/><path d="M129.31,99.259,99.258,129.311a23.145,23.145,0,0,1-5.868-3.371L125.939,93.39A23.1,23.1,0,0,1,129.31,99.259Z" transform="translate(-84.555 -84.555)" fill="#ffea94"/><path d="M90.639,72.63a18.009,18.009,0,0,1-36.017.221c0-.074,0-.148,0-.221A18.01,18.01,0,0,1,72.63,54.62c.074,0,.149,0,.222,0A17.926,17.926,0,0,1,83,57.906a18.129,18.129,0,0,1,4.962,5.278A17.923,17.923,0,0,1,90.639,72.63Z" transform="translate(-49.453 -49.453)" fill="#faa300"/><path d="M85.364,59.895,59.895,85.364a17.945,17.945,0,0,1-5.273-12.513c0-.074,0-.148,0-.221A18.01,18.01,0,0,1,72.63,54.62c.074,0,.149,0,.222,0A17.926,17.926,0,0,1,83,57.906,18.176,18.176,0,0,1,85.364,59.895Z" transform="translate(-49.453 -49.453)" fill="#ffbd00"/><path d="M253.272,72.63a18.01,18.01,0,0,1-18.01,18.01q-.512,0-1.017-.028a18.01,18.01,0,0,0,0-35.963q.505-.028,1.017-.028A18.01,18.01,0,0,1,253.272,72.63Z" transform="translate(-212.086 -49.453)" fill="#f68e00"/><path d="M101.938,125.6a1.892,1.892,0,0,0-2.577.719,7.24,7.24,0,0,1-6.183,3.985,7.136,7.136,0,0,1-5.965-3.611h5.211a1.892,1.892,0,0,0,0-3.784H85.817a11.164,11.164,0,0,1,0-3.523h6.607a1.892,1.892,0,0,0,0-3.784H87.213a7.136,7.136,0,0,1,5.965-3.611,7.24,7.24,0,0,1,6.183,3.985,1.892,1.892,0,0,0,3.3-1.858,10.966,10.966,0,0,0-9.479-5.911,10.547,10.547,0,0,0-8.083,3.9,13.112,13.112,0,0,0-2.121,3.493H80.568a1.892,1.892,0,0,0,0,3.784H82a15,15,0,0,0,0,3.523H80.568a1.892,1.892,0,1,0,0,3.784h2.406a13.112,13.112,0,0,0,2.121,3.493,10.547,10.547,0,0,0,8.083,3.9,10.966,10.966,0,0,0,9.479-5.911A1.892,1.892,0,0,0,101.938,125.6Z" transform="translate(-71.233 -97.974)" fill="#f68e00"/><path d="M126.941,125.6a1.892,1.892,0,0,0-2.577.719,7.24,7.24,0,0,1-6.183,3.985,7.136,7.136,0,0,1-5.965-3.611h5.211a1.892,1.892,0,1,0,0-3.784H110.82a11.164,11.164,0,0,1,0-3.523h6.607a1.892,1.892,0,1,0,0-3.784h-5.211a7.136,7.136,0,0,1,5.965-3.611,7.24,7.24,0,0,1,6.183,3.985,1.892,1.892,0,0,0,3.3-1.858,10.966,10.966,0,0,0-9.479-5.911,10.547,10.547,0,0,0-8.083,3.9,13.112,13.112,0,0,0-2.121,3.493h-2.406a1.892,1.892,0,0,0,0,3.784H107a15,15,0,0,0,0,3.523h-1.429a1.892,1.892,0,1,0,0,3.784h2.406a13.113,13.113,0,0,0,2.121,3.493,10.547,10.547,0,0,0,8.083,3.9,10.966,10.966,0,0,0,9.479-5.911A1.892,1.892,0,0,0,126.941,125.6Z" transform="translate(-93.871 -97.974)" fill="#e10000"/></svg>