<svg xmlns="http://www.w3.org/2000/svg" width="512" height="512" viewBox="0 0 512 512"><path d="M257,0C116.3,0,0,114.3,0,255S116.3,512,257,512,512,395.7,512,255,397.7,0,257,0Z" fill="#fedb41"/><path d="M512,255c0,140.7-114.3,257-255,257V0C397.7,0,512,114.3,512,255Z" fill="#fc3"/><path d="M257,60C149.6,60,60,147.6,60,255s89.6,197,197,197,195-89.6,195-197S364.4,60,257,60Z" fill="#fea832"/><path d="M452,255c0,107.4-87.6,197-195,197V60C364.4,60,452,147.6,452,255Z" fill="#fe9923"/><path d="M327.5,357.5c-22.2,22.5-44.7,20.7-70.5,9.6a153.4,153.4,0,0,1-14.4-6.6c-25.2-12.9-38-16.8-51.8-3h-.3c-14.1,14.1-35.1-7.2-21-21C192,314,195,291.3,192.3,270H165c-19.8,0-19.8-30,0-30h21c-5.4-23.1-10.8-47.1.6-71.1,11.7-24.9,42.8-36.6,70.4-34.2,30.9,2.7,60,22.8,60,60.3,0,19.8-30,19.8-30,0,0-18-14.1-27.6-30-30-16.5-2.7-37.1,3.3-43.4,16.5-7.2,15.6-2.7,33.3,2.1,53.7a28.013,28.013,0,0,1,1.2,4.8H287c19.8,0,19.8,30,0,30H222.3c1.8,15,.9,32.9-5.7,49.4,13.8,2.1,28.7,8.7,39.8,14.1.3,0,.3.3.6.3,25.2,12.9,35.7,16.5,49.5,2.7C320.6,322.4,341.6,343.7,327.5,357.5Z" fill="#ff1a1a"/><path d="M287,270H257V240h30C306.8,240,306.8,270,287,270Z" fill="#e10000"/><path d="M257,165V134.7c30.9,2.7,60,22.8,60,60.3,0,19.8-30,19.8-30,0C287,177,272.9,167.4,257,165Z" fill="#e10000"/><path d="M327.5,357.5c-22.2,22.5-44.7,20.7-70.5,9.6V333.8c25.2,12.9,35.7,16.5,49.5,2.7C320.6,322.4,341.6,343.7,327.5,357.5Z" fill="#e10000"/></svg>