<svg xmlns="http://www.w3.org/2000/svg" width="46" height="46" viewBox="0 0 46 46"><path d="M46,23A23.042,23.042,0,1,1,38.571,6.074,23,23,0,0,1,46,23Z" fill="#f0cd00"/><path d="M62.528,23.154A23,23,0,0,1,40.384,46.138a23,23,0,0,1,0-45.968A23,23,0,0,1,62.528,23.154Z" transform="translate(-16.528 -0.154)" fill="#ffde50"/><path d="M69.071,36.583l-32.5,32.5a23.1,23.1,0,0,1-2.913-3.929L65.143,33.67A22.992,22.992,0,0,1,69.071,36.583Z" transform="translate(-30.5 -30.509)" fill="#ffea94"/><path d="M129.036,99.214,99.213,129.037a22.969,22.969,0,0,1-5.823-3.346l32.3-32.3A22.928,22.928,0,0,1,129.036,99.214Z" transform="translate(-84.623 -84.623)" fill="#ffea94"/><path d="M90.365,72.492a17.872,17.872,0,0,1-35.743.22c0-.073,0-.146,0-.22A17.872,17.872,0,0,1,72.492,54.62c.073,0,.147,0,.221,0a17.789,17.789,0,0,1,10.075,3.259,17.991,17.991,0,0,1,4.924,5.237A17.786,17.786,0,0,1,90.365,72.492Z" transform="translate(-49.492 -49.492)" fill="#faa300"/><path d="M85.129,59.855,59.855,85.129a17.808,17.808,0,0,1-5.233-12.417c0-.073,0-.146,0-.22A17.872,17.872,0,0,1,72.492,54.62c.073,0,.147,0,.221,0a17.789,17.789,0,0,1,10.075,3.259A18.037,18.037,0,0,1,85.129,59.855Z" transform="translate(-49.492 -49.492)" fill="#ffbd00"/><path d="M253.127,72.492a17.873,17.873,0,0,1-17.872,17.872q-.508,0-1.009-.028a17.873,17.873,0,0,0,0-35.688q.5-.028,1.009-.028A17.873,17.873,0,0,1,253.127,72.492Z" transform="translate(-212.255 -49.492)" fill="#f68e00"/><g transform="translate(10.95 10.585)"><path d="M121.294,128.18l5.586-5.055a1.878,1.878,0,1,0-2.519-2.785l-3.97,3.592v-9.306a1.878,1.878,0,0,0-3.755,0v20.839a1.878,1.878,0,0,0,3.755,0v-3l4.724,4.379a1.878,1.878,0,0,0,2.553-2.754Z" transform="translate(-116.636 -112.749)" fill="#f68e00"/><path d="M276.8,191.008a5.955,5.955,0,0,0-6.514-1.281,1.877,1.877,0,0,0-3.654.6v13.732a1.878,1.878,0,1,0,3.755,0V195.22a2.2,2.2,0,0,1,3.758-1.557,1.878,1.878,0,1,0,2.655-2.655Z" transform="translate(-252.552 -181.346)" fill="#f68e00"/></g><g transform="translate(13.297 10.585)"><path d="M146.295,128.18l5.586-5.055a1.878,1.878,0,1,0-2.519-2.785l-3.97,3.592v-9.306a1.878,1.878,0,0,0-3.755,0v20.839a1.878,1.878,0,0,0,3.755,0v-3l4.724,4.379a1.878,1.878,0,0,0,2.553-2.754Z" transform="translate(-141.637 -112.749)" fill="#e10000"/><path d="M301.8,191.008a5.955,5.955,0,0,0-6.514-1.281,1.877,1.877,0,0,0-3.654.6v13.732a1.878,1.878,0,1,0,3.755,0V195.22a2.2,2.2,0,0,1,3.758-1.557,1.878,1.878,0,1,0,2.655-2.655Z" transform="translate(-277.553 -181.346)" fill="#e10000"/></g></svg>