<svg xmlns="http://www.w3.org/2000/svg" width="20.265" height="24.679" viewBox="0 0 20.265 24.679"><g transform="translate(0 0)"><path d="M80.146,0h-15.7A.747.747,0,0,0,63.7.747v.829h9.008a2.226,2.226,0,0,1,1.585.657L78.661,6.6h0a2.227,2.227,0,0,1,.657,1.585V21.608h.829a.747.747,0,0,0,.747-.747V.747A.747.747,0,0,0,80.146,0Zm0,0" transform="translate(-60.629)" fill="#fff"/><path d="M11.331,68.815V63.7H.747A.747.747,0,0,0,0,64.446V84.56a.747.747,0,0,0,.747.747h15.7a.747.747,0,0,0,.747-.747v-15H12.078a.747.747,0,0,1-.747-.747Zm0,0" transform="translate(0 -60.629)" fill="#fff"/><path d="M270.017,76.709l-3.932-3.932v3.932Zm0,0" transform="translate(-253.26 -69.27)" fill="#fff"/></g></svg>