<svg xmlns="http://www.w3.org/2000/svg" xmlns:xlink="http://www.w3.org/1999/xlink" width="37.316" height="32.158" viewBox="0 0 37.316 32.158"><defs><filter id="a" x="17.506" y="7.902" width="14.676" height="21.347" filterUnits="userSpaceOnUse"><feOffset dx="2" dy="2" input="SourceAlpha"/><feGaussianBlur stdDeviation="1" result="b"/><feFlood flood-opacity="0.161"/><feComposite operator="in" in2="b"/><feComposite in="SourceGraphic"/></filter></defs><g transform="translate(1.207 -33.945)"><g transform="matrix(1, 0, 0, 1, -1.21, 33.94)" filter="url(#a)"><path d="M275.484,172.228l0,7.785a1.112,1.112,0,0,0,.326.787l5.569,5.568,1.574-1.574-5.243-5.242,0-7.324Z" transform="translate(-256.48 -162.83)" fill="#708ad2" stroke="#708ad2" stroke-width="1"/></g><path d="M20.03,34.445A15.59,15.59,0,0,0,4.629,47.8H0l5.564,5.564L11.128,47.8H6.878A13.331,13.331,0,1,1,9.5,58.237L7.746,59.606A15.579,15.579,0,1,0,20.03,34.445Z" fill="#708ad2" stroke="#708ad2" stroke-width="1"/></g></svg>