<?xml version="1.0" encoding="UTF-8"?>
<svg width="40px" height="40px" viewBox="0 0 40 40" version="1.1" xmlns="http://www.w3.org/2000/svg" xmlns:xlink="http://www.w3.org/1999/xlink">
    <!-- Generator: Sketch 52.4 (67378) - http://www.bohemiancoding.com/sketch -->
    <title>Artboard</title>
    <desc>Created with Sketch.</desc>
    <g id="Artboard" stroke="none" stroke-width="1" fill="none" fill-rule="evenodd">
        <g id="baseline-chat-24px">
            <path d="M33.3333333,3.33333333 L6.66666667,3.33333333 C4.83333333,3.33333333 3.35,4.83333333 3.35,6.66666667 L3.33333333,36.6666667 L10,30 L33.3333333,30 C35.1666667,30 36.6666667,28.5 36.6666667,26.6666667 L36.6666667,6.66666667 C36.6666667,4.83333333 35.1666667,3.33333333 33.3333333,3.33333333 Z M10,15 L30,15 L30,18.3333333 L10,18.3333333 L10,15 Z M23.3333333,23.3333333 L10,23.3333333 L10,20 L23.3333333,20 L23.3333333,23.3333333 Z M30,13.3333333 L10,13.3333333 L10,10 L30,10 L30,13.3333333 Z"
                  id="Shape" fill="#FFFFFF" fill-rule="nonzero"/>
            <polygon id="Path" points="0 0 40 0 40 40 0 40"/>
        </g>
    </g>
</svg>