<svg xmlns="http://www.w3.org/2000/svg" xmlns:xlink="http://www.w3.org/1999/xlink" width="44.398" height="44.948" viewBox="0 0 44.398 44.948"><defs><filter id="a" x="0" y="0" width="44.398" height="44.948" filterUnits="userSpaceOnUse"><feOffset dx="2" dy="2" input="SourceAlpha"/><feGaussianBlur stdDeviation="2" result="b"/><feFlood flood-opacity="0.161"/><feComposite operator="in" in2="b"/><feComposite in="SourceGraphic"/></filter><filter id="c" x="7.346" y="5.058" width="17" height="28" filterUnits="userSpaceOnUse"><feOffset dx="2" dy="2" input="SourceAlpha"/><feGaussianBlur stdDeviation="2" result="d"/><feFlood flood-opacity="0.161"/><feComposite operator="in" in2="d"/><feComposite in="SourceGraphic"/></filter><filter id="e" x="16.122" y="10.058" width="17" height="26.426" filterUnits="userSpaceOnUse"><feOffset dx="2" dy="2" input="SourceAlpha"/><feGaussianBlur stdDeviation="2" result="f"/><feFlood flood-opacity="0.161"/><feComposite operator="in" in2="f"/><feComposite in="SourceGraphic"/></filter><filter id="g" x="24.898" y="4.058" width="17" height="28" filterUnits="userSpaceOnUse"><feOffset dx="2" dy="2" input="SourceAlpha"/><feGaussianBlur stdDeviation="2" result="h"/><feFlood flood-opacity="0.161"/><feComposite operator="in" in2="h"/><feComposite in="SourceGraphic"/></filter></defs><g transform="translate(-566.654 -122.942)"><g transform="matrix(1, 0, 0, 1, 566.65, 122.94)" filter="url(#a)"><path d="M1362.154,128.442V158.39h29.4" transform="translate(-1356.65 -122.94)" fill="none" stroke="#708ad2" stroke-linecap="round" stroke-width="3"/></g><path d="M1364.833,135.536h-2.262" transform="translate(-790.417)" fill="none" stroke="#708ad2" stroke-linecap="round" stroke-width="2"/><path d="M1364.833,135.536h-2.262" transform="translate(-790.417 8)" fill="none" stroke="#708ad2" stroke-linecap="round" stroke-width="2"/><path d="M1364.833,135.536h-2.262" transform="translate(-790.417 16)" fill="none" stroke="#708ad2" stroke-linecap="round" stroke-width="2"/><g transform="matrix(1, 0, 0, 1, 566.65, 122.94)" filter="url(#c)"><rect width="5" height="16" transform="translate(11.35 9.06)" fill="#708ad2"/></g><g transform="matrix(1, 0, 0, 1, 566.65, 122.94)" filter="url(#e)"><rect width="5" height="14.426" transform="translate(20.12 14.06)" fill="#708ad2"/></g><g transform="matrix(1, 0, 0, 1, 566.65, 122.94)" filter="url(#g)"><rect width="5" height="16" transform="translate(28.9 8.06)" fill="#708ad2"/></g><path d="M1389.053,128.442v21.273" transform="translate(-791)" fill="none" stroke="#708ad2" stroke-linecap="round" stroke-width="1"/><path d="M1389.053,128.442v19.7" transform="translate(-799.753 6)" fill="none" stroke="#708ad2" stroke-linecap="round" stroke-width="1"/><path d="M1389.053,128.442v21.273" transform="translate(-808.553 1)" fill="none" stroke="#708ad2" stroke-linecap="round" stroke-width="1"/></g></svg>