<svg xmlns="http://www.w3.org/2000/svg" width="22.782" height="22.319" viewBox="0 0 22.782 22.319"><g transform="translate(0 0)"><path d="M19.766,12.182l-.108-.039-.423-1.01.046-.1c1.282-2.908,1.194-2.995.981-3.206l-1.71-1.668a.457.457,0,0,0-.3-.118c-.1,0-.388,0-2.914,1.144l-.1.045L14.2,6.807l-.042-.1c-1.188-2.941-1.31-2.941-1.605-2.941H10.133c-.294,0-.429,0-1.53,2.946l-.041.107-1.037.423-.1-.041A15.962,15.962,0,0,0,4.457,6.111a.459.459,0,0,0-.3.117L2.446,7.9c-.217.214-.307.3,1.042,3.151l.05.106-.424,1.009-.1.04C0,13.37,0,13.483,0,13.786v2.367c0,.3,0,.43,3.016,1.511l.108.038.424,1.006-.046.1C2.22,21.72,2.3,21.8,2.52,22.016l1.708,1.671a.47.47,0,0,0,.3.118c.1,0,.386,0,2.914-1.143l.1-.047,1.043.422.041.1c1.189,2.94,1.311,2.94,1.606,2.94H12.65c.3,0,.429,0,1.532-2.948l.041-.107,1.038-.42.1.04a15.873,15.873,0,0,0,2.965,1.088.458.458,0,0,0,.3-.117l1.715-1.677c.216-.215.306-.3-1.046-3.148l-.05-.107.423-1,.1-.04c3.015-1.169,3.015-1.283,3.015-1.587V13.688C22.782,13.384,22.782,13.259,19.766,12.182ZM11.391,18.76A3.838,3.838,0,1,1,15.3,14.922,3.882,3.882,0,0,1,11.391,18.76Z" transform="translate(0 -3.762)" fill="#bbb"/></g></svg>