<?xml version="1.0" encoding="UTF-8"?>
<svg width="40px" height="40px" viewBox="0 0 40 40" version="1.1" xmlns="http://www.w3.org/2000/svg" xmlns:xlink="http://www.w3.org/1999/xlink">
    <!-- Generator: Sketch 52.4 (67378) - http://www.bohemiancoding.com/sketch -->
    <title>Artboard</title>
    <desc>Created with Sketch.</desc>
    <g id="Artboard" stroke="none" stroke-width="1" fill="none" fill-rule="evenodd">
        <g id="icon-info" transform="translate(2.000000, 2.000000)" fill="#FFFFFF">
            <path d="M18.0073186,12.4836364 C17.5144372,12.4885167 17.0402336,12.2933985 16.691021,11.9420256 C16.3418083,11.5906528 16.1468011,11.1124207 16.1497186,10.6145455 C16.1497186,9.57090909 16.9633186,8.74181818 18.0001186,8.73818182 C19.0369186,8.73818182 19.8541186,9.56 19.8577186,10.6072727 C19.8625502,11.1051327 19.6693831,11.5841262 19.321524,11.9368663 C18.9736649,12.2896063 18.5002151,12.4865833 18.0073186,12.4836364 M19.0873186,27.2763636 C18.3506953,27.253314 17.6135419,27.253314 16.8769186,27.2763636 C16.5673186,27.2872727 16.5025186,27.1745455 16.5025186,26.8872727 C16.5133186,24.1345455 16.5025186,21.3854545 16.5169186,18.6363636 C16.5169186,18.2727273 16.4197186,18.1636364 16.0597186,18.1745455 C15.3217186,18.2 14.5837186,18.1745455 13.8493186,18.1854545 C13.5901186,18.1927273 13.5001186,18.1127273 13.5037186,17.8436364 C13.5181186,17.0618182 13.5181186,16.28 13.5037186,15.4981818 C13.5001186,15.2290909 13.5937186,15.1527273 13.8493186,15.1563636 C15.6097186,15.1636364 17.3701186,15.1672727 19.1305186,15.1563636 C19.4365186,15.1490909 19.5085186,15.2509091 19.5049186,15.5418182 C19.4941186,17.4327273 19.5013186,19.3236364 19.5013186,21.2181818 C19.5013186,23.0981818 19.4905186,24.9781818 19.5085186,26.8545455 C19.5085186,27.1927273 19.4149186,27.2909091 19.0873186,27.2763636 M18.1225186,0.00363636364 C8.13251859,-0.0618181818 0.032518594,8.20363636 0.000118593976,18.1090909 C-0.035881406,28.16 8.12891859,36.3636364 17.9821186,36.3709091 C27.8821186,36.3818182 36.0325186,28.1636364 36.0001186,18.2 C36.0433186,8.2 27.9001186,0.0581818182 18.1225186,0"
                  id="Shape"/>
        </g>
    </g>
</svg>