<svg xmlns="http://www.w3.org/2000/svg" width="36.357" height="36.357" viewBox="0 0 36.357 36.357"><path d="M93.179,0a18.179,18.179,0,1,0,18.179,18.179A18.185,18.185,0,0,0,93.179,0Zm0,0" transform="translate(-75)" fill="#fff"/><g transform="translate(8.133 6.082)"><g transform="translate(0 0)"><path d="M148.444,116.333a.5.5,0,0,0-.753.379c-.018.165-.046.329-.081.5-.983,4.462-2.957,6.632-6.037,6.632h-4.519a.5.5,0,0,0-.491.4l-1.506,7.061-.269,1.8a1.506,1.506,0,0,0,1.473,1.786h3.023a1.5,1.5,0,0,0,1.461-1.144l1.221-4.881h2.62c3.092,0,5.229-2.465,6.017-6.942h0A5.248,5.248,0,0,0,148.444,116.333Z" transform="translate(-130.182 -110.791)" fill="#03a9f4"/><path d="M54.828,1.79A5.284,5.284,0,0,0,50.911,0H42.6a2.5,2.5,0,0,0-2.484,2.135L37.53,19.358a1.506,1.506,0,0,0,1.491,1.73h3.856a.5.5,0,0,0,.491-.4l1.421-6.628h4.117c3.573,0,5.934-2.5,7.018-7.431a5.914,5.914,0,0,0,.1-.6A5.185,5.185,0,0,0,54.828,1.79Z" transform="translate(-37.513 0)" fill="#283593"/></g></g></svg>