<?xml version="1.0" encoding="UTF-8"?>
<svg width="40px" height="40px" viewBox="0 0 40 40" version="1.1" xmlns="http://www.w3.org/2000/svg" xmlns:xlink="http://www.w3.org/1999/xlink">
    <!-- Generator: Sketch 52.4 (67378) - http://www.bohemiancoding.com/sketch -->
    <title>Artboard</title>
    <desc>Created with Sketch.</desc>
    <defs>
        <path d="M43.3162056,21.3979727 C44.2458331,20.4408229 44.2249642,18.9098903 43.2695909,17.9785229 C42.9422669,17.6594268 42.5312942,17.4399198 42.084413,17.3455006 L31.0149226,15.6778179 C31.0149226,15.6778179 31.0149226,15.6778179 31.0149226,15.6778179 L26.2375635,5.48827704 C25.7154265,4.24948407 24.2897827,3.66930228 23.053279,4.19241597 C22.4701299,4.43912127 22.0060719,4.90404283 21.7598248,5.48827709 L17.065695,15.677818 C17.065695,15.677818 17.065695,15.677818 17.065695,15.677818 L5.92962117,17.3455006 L5.92962094,17.3455007 C4.62373234,17.6135806 3.78202327,18.8915042 4.04960531,20.1998229 C4.14355133,20.6591627 4.36876619,21.0812332 4.69783301,21.4146463 L12.7211329,29.7530595 C12.7211329,29.7530595 12.7211329,29.7530595 12.7211329,29.8364436 L10.9566727,40.9265331 L10.9566727,40.9265332 C10.6597756,42.2945433 11.5260224,43.6446725 12.8914865,43.9421204 C13.458534,44.0656445 14.0507301,43.9901338 14.5688222,43.7282451 L24.0070193,38.458368 L33.4119248,43.7115683 C34.6594929,44.3422057 36.1811284,43.8402028 36.8105912,42.5903135 C37.0719943,42.0712639 37.147365,41.4779642 37.0240692,40.9098564 L35.2263174,29.7864132 C35.217425,29.7593324 35.217425,29.7301099 35.2263174,29.7030291 L43.3162056,21.3979727 Z" id="path-1"></path>
    </defs>
    <g id="Artboard" stroke="none" stroke-width="1" fill="none" fill-rule="evenodd" opacity="0.3">
        <g id="Icon/Star/Fill" transform="translate(-4.000000, -4.000000)">
            <rect id="24pt-Bounding-Box" x="0" y="0" width="48" height="48"></rect>
            <mask id="mask-2" fill="white">
                <use xlink:href="#path-1"></use>
            </mask>
            <use id="Fill" fill="#222742" fill-rule="evenodd" xlink:href="#path-1"></use>
        </g>
    </g>
</svg>