<?xml version="1.0" encoding="UTF-8"?>
<svg width="40px" height="40px" viewBox="0 0 40 40" version="1.1" xmlns="http://www.w3.org/2000/svg" xmlns:xlink="http://www.w3.org/1999/xlink">
    <!-- Generator: Sketch 52.4 (67378) - http://www.bohemiancoding.com/sketch -->
    <title>Artboard</title>
    <desc>Created with Sketch.</desc>
    <defs>
        <path d="M36.096838,17.8316439 C36.8715276,17.0340191 36.8541368,15.7582419 36.0579924,14.9821024 C35.7852224,14.716189 35.4427451,14.5332665 35.0703442,14.4545838 L25.8457688,13.0648483 C25.8457688,13.0648483 25.8457688,13.0648483 25.8457688,13.0648483 L21.8646363,4.5735642 C21.4295221,3.54123672 20.2414855,3.0577519 19.2110658,3.49367998 C18.7251082,3.69926772 18.3383932,4.08670236 18.1331873,4.57356424 L14.2214125,13.0648483 C14.2214125,13.0648483 14.2214125,13.0648483 14.2214125,13.0648483 L4.94135098,14.4545838 L4.94135078,14.4545839 C3.85311028,14.6779839 3.15168606,15.7429201 3.37467109,16.8331857 C3.45295944,17.2159689 3.64063849,17.5676943 3.91486084,17.8455386 L10.600944,24.7942162 C10.600944,24.7942162 10.600944,24.7942162 10.600944,24.863703 L9.1305606,34.1054443 C8.88314637,35.2454528 9.60501864,36.3705604 10.7429054,36.6184336 C11.215445,36.7213704 11.7089418,36.6584448 12.1406852,36.4402042 L20.0058494,32.04864 L27.8432706,36.4263069 C28.8829108,36.9518381 30.1509403,36.5335023 30.6754927,35.4919279 C30.8933286,35.0593866 30.9561375,34.5649701 30.853391,34.091547 L29.3552645,24.822011 C29.3478542,24.7994436 29.3478542,24.7750916 29.3552645,24.7525242 L36.096838,17.8316439 Z"
              id="path-1"/>
    </defs>
    <g id="Artboard" stroke="none" stroke-width="1" fill="none" fill-rule="evenodd">
        <g id="Icon/Star/Fill">
            <rect id="24pt-Bounding-Box" x="0" y="0" width="40" height="40"/>
            <mask id="mask-2" fill="white">
                <use xlink:href="#path-1"/>
            </mask>
            <use id="Fill" fill="#FFFFFF" fill-rule="evenodd" xlink:href="#path-1"/>
        </g>
    </g>
</svg>