<?xml version="1.0" encoding="UTF-8"?>
<svg width="40px" height="40px" viewBox="0 0 40 40" version="1.1" xmlns="http://www.w3.org/2000/svg" xmlns:xlink="http://www.w3.org/1999/xlink">
    <!-- Generator: Sketch 52.4 (67378) - http://www.bohemiancoding.com/sketch -->
    <title>Artboard</title>
    <desc>Created with Sketch.</desc>
    <defs>
        <radialGradient cx="27.1941794%" cy="8.93711266%" fx="27.1941794%" fy="8.93711266%" r="104.820426%" id="radialGradient-1">
            <stop stop-color="#379BF4" offset="0%"/>
            <stop stop-color="#6E1DBF" offset="100%"/>
        </radialGradient>
        <radialGradient cx="50%" cy="-11.4858754%" fx="50%" fy="-11.4858754%" r="136.036427%" gradientTransform="translate(0.500000,-0.114859),rotate(90.000000),scale(1.000000,1.517650),translate(-0.500000,0.114859)" id="radialGradient-2">
            <stop stop-color="#FF9B36" offset="0%"/>
            <stop stop-color="#FF6219" offset="100%"/>
        </radialGradient>
        <path d="M39.3162056,17.3979727 C40.2458331,16.4408229 40.2249642,14.9098903 39.2695909,13.9785229 C38.9422669,13.6594268 38.5312942,13.4399198 38.084413,13.3455006 L27.0149226,11.6778179 C27.0149226,11.6778179 27.0149226,11.6778179 27.0149226,11.6778179 L22.2375635,1.48827704 C21.7154265,0.24948407 20.2897827,-0.330697716 19.053279,0.19241597 C18.4701299,0.439121265 18.0060719,0.904042833 17.7598248,1.48827709 L13.065695,11.677818 C13.065695,11.677818 13.065695,11.677818 13.065695,11.677818 L1.92962117,13.3455006 L1.92962094,13.3455007 C0.623732342,13.6135806 -0.217976731,14.8915042 0.0496053127,16.1998229 C0.143551329,16.6591627 0.368766188,17.0812332 0.697833009,17.4146463 L8.72113286,25.7530595 C8.72113286,25.7530595 8.72113286,25.7530595 8.72113286,25.8364436 L6.95667272,36.9265331 L6.9566727,36.9265332 C6.65977565,38.2945433 7.52602237,39.6446725 8.89148646,39.9421204 C9.45853401,40.0656445 10.0507301,39.9901338 10.5688222,39.7282451 L20.0070193,34.458368 L29.4119248,39.7115683 C30.6594929,40.3422057 32.1811284,39.8402028 32.8105912,38.5903135 C33.0719943,38.0712639 33.147365,37.4779642 33.0240692,36.9098564 L31.2263174,25.7864132 C31.217425,25.7593324 31.217425,25.7301099 31.2263174,25.7030291 L39.3162056,17.3979727 Z"
              id="path-3"/>
    </defs>
    <g id="Artboard" stroke="none" stroke-width="1" fill="none" fill-rule="evenodd">
        <g id="Icon/Star/Fill">
            <rect id="24pt-Bounding-Box" x="8" y="2" width="30" height="30"/>
            <mask id="mask-4" fill="white">
                <use xlink:href="#path-3"/>
            </mask>
            <use id="Fill" fill="url(#radialGradient-2)" xlink:href="#path-3"/>
        </g>
    </g>
</svg>