<svg xmlns="http://www.w3.org/2000/svg" xmlns:xlink="http://www.w3.org/1999/xlink" width="68.581" height="54.391" viewBox="0 0 68.581 54.391"><defs><filter id="a" x="27.002" y="20.501" width="11.381" height="11.381" filterUnits="userSpaceOnUse"><feOffset input="SourceAlpha"/><feGaussianBlur result="b"/><feFlood flood-opacity="0.412"/><feComposite operator="in" in2="b"/><feComposite in="SourceGraphic"/></filter></defs><g transform="translate(-1392.766 -657.31)"><g transform="translate(1392.766 657.31)"><g transform="translate(0 0)"><path d="M15.372,64.791h0l8.033-5.022-5.668-6.8H0L8.795,74.954a11.982,11.982,0,0,0,9.386,7.411,56.6,56.6,0,0,1-2.809-17.574" transform="translate(0 -52.967)" fill="#930b1f"/><path d="M342.935,52.966l-5.668,6.8L345.3,64.79a56.617,56.617,0,0,1-2.809,17.576,11.988,11.988,0,0,0,9.386-7.411l8.795-21.988Z" transform="translate(-292.091 -52.966)" fill="#930b1f"/></g><path d="M133.677,107.357l-3.52-3.739a56.655,56.655,0,0,1-15.4-38.828h0l18.919-11.824L152.6,64.79a56.651,56.651,0,0,1-15.4,38.827Z" transform="translate(-99.387 -52.966)" fill="#f8d832"/><path d="M164.592,136.44a51.712,51.712,0,0,1-14.05-33l14.125-8.828,14.126,8.828a51.726,51.726,0,0,1-14.05,33l-.077.08Z" transform="translate(-130.377 -89.029)" fill="#5a4a08"/><g transform="translate(1.454 3.547)"><path d="M17.681,79.448H11.3a1.17,1.17,0,0,0-.437.089l.91,2.276h5.912a1.182,1.182,0,1,0,0-2.365" transform="translate(-10.858 -79.448)" fill="#6b0f21"/><path d="M31.1,114.759H25.419a1.175,1.175,0,0,0-.437.089l.91,2.276h5.2a1.182,1.182,0,0,0,0-2.365" transform="translate(-23.09 -110.029)" fill="#6b0f21"/><path d="M40.016,152.433h5.676a1.182,1.182,0,0,0,0-2.365H39.543a1.174,1.174,0,0,0-.437.089Z" transform="translate(-35.322 -140.609)" fill="#6b0f21"/><path d="M448.95,79.448h-6.385a1.182,1.182,0,1,0,0,2.365h5.912l.91-2.276a1.172,1.172,0,0,0-.437-.089" transform="translate(-383.715 -79.448)" fill="#6b0f21"/><path d="M439.848,114.845a1.175,1.175,0,0,0-.437-.089h-5.676a1.182,1.182,0,0,0,0,2.365h5.2Z" transform="translate(-376.068 -110.027)" fill="#6b0f21"/><path d="M422.667,150.155a1.175,1.175,0,0,0-.437-.089H416.08a1.182,1.182,0,1,0,0,2.365h5.676Z" transform="translate(-360.778 -140.607)" fill="#6b0f21"/></g></g><g transform="translate(1414.647 672.455) rotate(-45)"><path d="M0,11.361H4.734V0H0Z" transform="translate(0 12.308)" fill="#c4a316"/><path d="M0,0H4.734L4.367,1.465a.566.566,0,0,1-.549.429H.915a.566.566,0,0,1-.549-.429Z" transform="translate(0 23.668)" fill="#f8d832"/><path d="M4.041,1.893H.693A.693.693,0,0,1,0,1.2V.693A.693.693,0,0,1,.693,0H4.041a.693.693,0,0,1,.693.693V1.2a.693.693,0,0,1-.693.693" transform="translate(0 25.562)" fill="#c4a316"/><path d="M4.734,1.893H0L.947,0h2.84Z" transform="translate(0 10.414)" fill="#f8d832"/><path d="M0,2.84H2.84V0H0Z" transform="translate(0.947 7.574)" fill="#c4a316"/><path d="M2.84,7.574H0A19.356,19.356,0,0,1,.816,2.013L1.42,0l.6,2.013A19.355,19.355,0,0,1,2.84,7.574" transform="translate(0.947 0)" fill="#f8d832"/></g><g transform="translate(1436.504 669.108) rotate(45)"><g transform="matrix(0.71, -0.71, 0.71, 0.71, -39.27, 22.59)" filter="url(#a)"><path d="M0,11.361H4.734V0H0Z" transform="translate(35.04 20.5) rotate(45)" fill="#c4a316"/></g><path d="M0,0H4.734L4.367,1.465a.566.566,0,0,1-.549.429H.916a.566.566,0,0,1-.549-.429Z" transform="translate(0 23.668)" fill="#f8d832"/><path d="M4.041,1.893H.693A.693.693,0,0,1,0,1.2V.693A.693.693,0,0,1,.693,0H4.041a.693.693,0,0,1,.693.693V1.2a.693.693,0,0,1-.693.693" transform="translate(0 25.562)" fill="#c4a316"/><path d="M4.734,1.893H0L.947,0h2.84Z" transform="translate(0 10.414)" fill="#f8d832"/><path d="M0,2.84H2.84V0H0Z" transform="translate(0.947 7.574)" fill="#c4a316"/><path d="M2.84,7.574H0A19.356,19.356,0,0,1,.816,2.013L1.42,0l.6,2.013A19.356,19.356,0,0,1,2.84,7.574" transform="translate(0.947 0)" fill="#f8d832"/></g></g></svg>