<svg xmlns="http://www.w3.org/2000/svg" width="112.825" height="112.846" viewBox="0 0 112.825 112.846"><g transform="translate(0.055 0.048)"><g fill="rgba(26,30,33,0.41)" stroke="#878787" stroke-width="1"><rect width="112.716" height="112.716" stroke="none"/><rect x="0.5" y="0.5" width="111.716" height="111.716" fill="none"/></g><path d="M369,812.813v14.9h14.9" transform="translate(-368.555 -715.413)" fill="none" stroke="#fff" stroke-width="1"/><path d="M383.9,812.813v14.9H369" transform="translate(-271.627 -715.413)" fill="none" stroke="#fff" stroke-width="1"/><path d="M0,0V14.9H14.9" transform="translate(15.343 0.452) rotate(90)" fill="none" stroke="#fff" stroke-width="1"/><path d="M0,14.9V0H14.9" transform="translate(112.27 0.452) rotate(90)" fill="none" stroke="#fff" stroke-width="1"/><g transform="translate(28.327 27.103)" opacity="0.26"><path d="M9.034,1c4.989,0,9.034,3.95,9.034,9.938S14.024,21.779,9.034,21.779,0,16.925,0,10.938,4.045,1,9.034,1Z" transform="translate(19.006 -1)" fill="#fff"/><path d="M678.306,1381.25a8.377,8.377,0,0,1-9.273,0c-1.224-.064-1.288.966-2.061,1.868s-8.887-.193-11.463,2.447-8.114,8.243-8.694,9.467-1.739.773.322,5.088,1.03,3.22,5.023,3.349,4.186-.966,12.107,9.016,14.619,5.732,19.127.644,6.182-12.107,15.778-9.338c1.095-.129,2-1.868,2.769-5.152s.966-3.22-1.739-5.989-3.993-4.894-6.826-6.44-2.254-1.481-8.372-1.868c-1.723-.207-2.737-.319-3.606-1.223a13,13,0,0,0-1.8-1.868C678.5,1380.67,678.306,1381.25,678.306,1381.25Z" transform="translate(-645.962 -1359.317)" fill="#fff"/><path d="M832.429,1393.753c0-2.846-2.512-.921-2.763-3.516s.335-3.349,2.177-3.349,4.772-.167,5.944,0,.837,2.26.5,4.019-2.679-.251-2.26,2.846,1.172,10.13,1.758,11.135.67,2.177-1.088,5.526a38.244,38.244,0,0,0-2.093,4.354s-2.26-4.186-3.349-6.028c-1-2.009.232-4.018.586-7.116C832.2,1398.482,832.429,1395.31,832.429,1393.753Z" transform="translate(-806.44 -1360.783)" fill="#5d6d78"/></g></g></svg>