<svg xmlns="http://www.w3.org/2000/svg" width="60.56" height="60.56" viewBox="0 0 60.56 60.56"><g transform="translate(-75)"><path d="M105.28,0a30.28,30.28,0,1,0,30.28,30.28A30.291,30.291,0,0,0,105.28,0Zm0,0" fill="#ff9100"/><g transform="translate(82.591 7.031)"><path d="M45.938,22.969A22.969,22.969,0,0,1,24.2,45.905q-.612.032-1.232.033a23.063,23.063,0,0,1-3.549-.273A22.815,22.815,0,0,1,12.1,43.21a23.061,23.061,0,0,1-7.039-5.854q-.581-.72-1.1-1.489a22.97,22.97,0,1,1,41.977-12.9Z" fill="#f99400"/><path d="M79.849,33.045a8.451,8.451,0,0,0-2.978-3.8A13.916,13.916,0,0,0,73.65,27.55l1.435-5.516-4.537-1.181-1.387,5.33-2.917-.758,1.387-5.33-4.537-1.181-1.387,5.33-9.631-2.507-1.167,4.485,1.276.333a4.461,4.461,0,0,1,1.671.683,1.4,1.4,0,0,1,.473.793,5.547,5.547,0,0,1-.292,1.883L49.331,47.989a5.658,5.658,0,0,1-.66,1.776,1.318,1.318,0,0,1-.8.462,7.75,7.75,0,0,1-2.205-.337l-1.518,3.193q.522.768,1.1,1.489l8.02,2.087-.981,3.767a22.762,22.762,0,0,0,4.373,1.8L57.8,57.839l2.818.734.1.023-1.115,4.285a23.073,23.073,0,0,0,3.549.273q.62,0,1.232-.033l.939-3.608a15.8,15.8,0,0,0,3.907.082,9.968,9.968,0,0,0,5.259-2.168,8.254,8.254,0,0,0,2.793-4.348A7.939,7.939,0,0,0,77.28,48.9a7.482,7.482,0,0,0-2.054-3.448,14.573,14.573,0,0,0-3.149-2.182,10.759,10.759,0,0,0,3.893-.936A7.985,7.985,0,0,0,78.613,40.3a7.226,7.226,0,0,0,1.479-2.865A7.133,7.133,0,0,0,79.849,33.045ZM69.093,50.036a4.7,4.7,0,0,1-1.7,2.654,4.6,4.6,0,0,1-2.723.991,13.208,13.208,0,0,1-3.518-.5l-2.365-.616a4.781,4.781,0,0,1-1.416-.505A.788.788,0,0,1,57.1,51.5a8.953,8.953,0,0,1,.337-1.774l1.826-7.017L63.459,43.8a12.756,12.756,0,0,1,3.973,1.581,4.219,4.219,0,0,1,1.624,2.035A4.419,4.419,0,0,1,69.093,50.036Zm2.828-13.43a3.742,3.742,0,0,1-1.24,2,4.1,4.1,0,0,1-2.375.883,13.944,13.944,0,0,1-4.246-.608l-3.553-.925,2.057-7.9,3.553.924a16.938,16.938,0,0,1,4.223,1.509,3.593,3.593,0,0,1,1.511,1.77A3.825,3.825,0,0,1,71.921,36.606Z" transform="translate(-40.187 -17.216)" fill="#f0efeb"/></g></g></svg>