<svg xmlns="http://www.w3.org/2000/svg" width="53.475" height="62.656" viewBox="0 0 53.475 62.656"><path d="M170.334,116.444a1.3,1.3,0,0,0-1.958.984c-.047.428-.12.856-.211,1.305-2.556,11.6-7.688,17.241-15.7,17.241H140.721a1.305,1.305,0,0,0-1.277,1.044l-3.916,18.356-.7,4.673a3.916,3.916,0,0,0,3.83,4.644h7.858a3.9,3.9,0,0,0,3.8-2.974l3.175-12.69H160.3c8.038,0,13.594-6.409,15.643-18.048h0A13.644,13.644,0,0,0,170.334,116.444Z" transform="translate(-122.859 -102.036)" fill="#03a9f4"/><path d="M82.526,4.653A13.737,13.737,0,0,0,72.344,0H50.728a6.493,6.493,0,0,0-6.459,5.55L37.557,50.326a3.916,3.916,0,0,0,3.877,4.5H51.459a1.305,1.305,0,0,0,1.277-1.044L56.43,36.55h10.7c9.289,0,15.427-6.493,18.246-19.319a15.368,15.368,0,0,0,.261-1.548A13.479,13.479,0,0,0,82.526,4.653Z" transform="translate(-37.513 0)" fill="#283593"/></svg>